<svg xmlns="http://www.w3.org/2000/svg" width="512.000000pt" height="512.000000pt" viewBox="0 0 512.000000 512.000000" preserveAspectRatio="xMidYMid meet">
  <defs fill="#ffffff">
    <symbol id="cross" viewBox="0 0 512 512" fill="#ffffff">
      <g transform="translate(0.000000,512.000000) scale(0.100000,-0.100000)" fill="#ffffff" stroke="none">
        <path d="M2335 5106 c-37 -17 -70 -52 -84 -89 -7 -19 -11 -207 -11 -557 l0 -529 -619 -3 c-611 -3 -620 -3 -648 -24 -15 -11 -38 -36 -50 -54 -22 -32 -23 -42 -23 -239 0 -241 5 -261 80 -298 l44 -23 608 0 608 0 2 -1594 c3 -1593 3 -1595 24 -1622 51 -68 53 -69 294 -69 241 0 243 1 294 69 21 27 21 29 24 1622 l2 1594 608 0 608 0 44 23 c74 38 80 58 80 298 0 197 -1 207 -22 239 -13 18 -36 43 -51 54 -28 21 -37 21 -647 24 l-620 3 -2 544 c-3 531 -3 544 -24 571 -50 67 -55 69 -282 71 -158 2 -214 0 -237 -11z" fill="#ffffff"/>
      </g>
    </symbol>
  </defs>
</svg>