<svg xmlns="http://www.w3.org/2000/svg" width="22.651" height="22.152" viewBox="0 0 22.651 22.152">
  <path id="search_FILL0_wght200_GRAD0_opsz48" d="M28.727,29.1l-6.162-5.716a8.144,8.144,0,0,1-2.759,1.627,9.389,9.389,0,0,1-3.156.556,8.761,8.761,0,0,1-6.411-2.62A8.662,8.662,0,0,1,7.6,16.561,8.946,8.946,0,0,1,16.611,7.55a8.761,8.761,0,0,1,6.411,2.62,8.663,8.663,0,0,1,2.64,6.391,9.207,9.207,0,0,1-.576,3.2,8.412,8.412,0,0,1-1.647,2.759l6.2,5.677ZM16.65,24.341A7.589,7.589,0,0,0,22.208,22.1a7.489,7.489,0,0,0,2.263-5.537,7.727,7.727,0,0,0-7.82-7.82,7.727,7.727,0,0,0-7.82,7.82A7.489,7.489,0,0,0,11.093,22.1,7.589,7.589,0,0,0,16.65,24.341Z" transform="translate(-7.35 -7.3)" fill="#fff" stroke="#fff" stroke-width="0.5"/>
</svg>
